<?xml version="1.0" encoding="UTF-8" standalone="no"?>
<svg
   xmlns:dc="http://purl.org/dc/elements/1.1/"
   xmlns:cc="http://creativecommons.org/ns#"
   xmlns:rdf="http://www.w3.org/1999/02/22-rdf-syntax-ns#"
   xmlns:svg="http://www.w3.org/2000/svg"
   xmlns="http://www.w3.org/2000/svg"
   width="139.74609mm"
   height="103.9152mm"
   viewBox="0 0 139.74609 103.9152"
   version="1.1"
   id="svg1205">
  <defs
     id="defs1199" />
  <metadata
     id="metadata1202">
    <rdf:RDF>
      <cc:Work
         rdf:about="">
        <dc:format>image/svg+xml</dc:format>
        <dc:type
           rdf:resource="http://purl.org/dc/dcmitype/StillImage" />
        <dc:title></dc:title>
      </cc:Work>
    </rdf:RDF>
  </metadata>
  <g
     id="layer1"
     transform="translate(-32.180521,-37.244781)">
    <g
       id="g1799">
      <path
         style="display:inline;fill:#92278f;fill-opacity:1;stroke:none;stroke-width:0.264583px;stroke-linecap:butt;stroke-linejoin:miter;stroke-opacity:1"
         d="m 80.381223,80.77388 c 0.1236,-15.863498 3.463099,-43.529099 33.487997,-43.529099 l 27.2318,0.2383 25.3787,27.303902 -12.3506,15.482998 c 1.7883,-26.023 -44.2994,-43.5834 -49.1476,-0.5945 -0.7792,3.267101 -1.0308,7.2469 -5.021798,7.633801 H 84.861021 c -5.644201,0 -4.5036,-2.599399 -4.479798,-6.535402 z"
         id="path1143" />
      <path
         style="display:inline;fill:#fa921b;fill-opacity:1;stroke:none;stroke-width:0.264583px;stroke-linecap:butt;stroke-linejoin:miter;stroke-opacity:1"
         d="m 113.86922,37.244781 c 6.4319,0 35.0514,14.7363 35.0514,44.3958 v 11.299402 c 0,4.388098 -2.3287,10.367597 -7.083,13.785697 -3.1531,2.328 -9.1765,4.3274 -9.1765,10.2331 v 16.9267 c 0,2.1155 1.1695,3.798 3.9614,3.798 26.4554,-2.1855 35.3041,-26.623 35.3041,-51.427698 v -4.0508 c 0,-21.115801 -13.3829,-44.960201 -32.3671,-44.960201 z"
         id="path1145" />
      <path
         style="display:inline;fill:#92278f;fill-opacity:1;stroke:none;stroke-width:0.264583px;stroke-linecap:butt;stroke-linejoin:miter;stroke-opacity:1"
         d="M 32.180521,95.262583 V 45.736981 c 0,-2.0653 0.7169,-3.7196 3.4983,-3.7196 h 16.2059 l 4.3732,9.9111 v 32.2105 c 0,14.0692 -24.0066,19.707499 -24.0774,11.123602 z"
         id="path1147" />
      <path
         id="path1149"
         style="display:inline;fill:#fa921b;fill-opacity:1;stroke:none;stroke-width:0.26266px;stroke-linecap:butt;stroke-linejoin:miter;stroke-opacity:1"
         d="m 35.844521,42.013781 h -0.1659 c -0.5009,0 -0.9335,0.055 -1.3073,0.1556 -0.1299,0.035 -0.2516,0.076 -0.3675,0.1219 -0.045,0.018 -0.086,0.038 -0.1291,0.057 -0.068,0.03 -0.1344,0.061 -0.1971,0.096 -0.049,0.026 -0.094,0.055 -0.14,0.083 -0.051,0.032 -0.1021,0.065 -0.1498,0.1003 -0.048,0.035 -0.094,0.071 -0.1381,0.108 -0.038,0.032 -0.075,0.065 -0.1106,0.099 -0.044,0.042 -0.088,0.084 -0.1286,0.1287 -0.011,0.01 -0.019,0.019 -0.028,0.029 -0.2818,0.32 -0.4794,0.7035 -0.6051,1.1368 0.382,-0.7214 1.0739,-0.5792 1.5396,0 l 38.1894,37.713502 c 3.1666,2.935798 4.809101,5.446598 8.564301,5.460597 h 19.317499 c 2.934199,-0.298698 3.834099,-2.551498 4.419099,-5.023897 -0.4469,1.051499 -0.6429,3.8921 -3.5925,1.039198 l -38.9462,-38.7997 c -1.086598,-1.1702 -3.112,-2.5074 -5.390799,-2.5074 h -18.0258 z" />
      <g
         id="g1157"
         transform="matrix(1.0060662,0,0,1.0060662,-1129.0255,-1144.6232)"
         style="display:inline;fill:#cccccc">
        <g
           id="g1153"
           transform="matrix(1.0496062,0,0,1.0496062,259.27746,-20.855361)"
           style="fill:#cccccc">
          <path
             d="m 937.61952,1233.8791 h -8.03834 c -6.73838,0 -10.79832,-7.1872 -13.77237,-13.2262 -2.97405,-6.039 -13.09188,-7.5832 -13.18116,0.342 0,1.7103 0.51309,3.0596 1.53926,4.0477 0.98817,0.9502 2.3754,1.4253 4.16169,1.4253 6.44081,-0.2977 6.53419,8.5398 0,8.5514 -2.73645,0 -5.09285,-0.5701 -7.06918,-1.7103 -2.01433,-1.1782 -3.57259,-2.8315 -4.67477,-4.9598 -1.10219,-2.1284 -1.65328,-4.6368 -1.65328,-7.5253 0,-2.6985 0.51309,-5.0359 1.53926,-7.0122 0.98816,-2.0143 2.37539,-3.5726 4.16169,-4.6747 6.7097,-3.8348 17.33236,-2.0616 21.33352,6.6701 4.00116,8.7317 7.9574,9.7484 7.9574,7.5252 v -12.4372 c 0,-1.8672 1.56858,-3.9245 3.84814,-3.9245 2.27956,0 3.87633,2.0882 3.84814,3.9245 z"
             style="font-style:normal;font-variant:normal;font-weight:800;font-stretch:normal;font-size:57.0095px;line-height:48.3714px;font-family:'JetBrains Mono';-inkscape-font-specification:'JetBrains Mono Ultra-Bold';letter-spacing:2.85048px;fill:#92278f;fill-opacity:1;stroke-width:1.42525"
             id="path1151" />
        </g>
        <g
           aria-label="3"
           transform="matrix(0,-0.31562367,0.31562367,0,1105.4784,922.92283)"
           id="g1155"
           style="font-style:normal;font-variant:normal;font-weight:800;font-stretch:normal;font-size:189.586px;line-height:1.05;font-family:'JetBrains Mono';-inkscape-font-specification:'JetBrains Mono Ultra-Bold';letter-spacing:9.47932px;fill:#cccccc;stroke-width:4.73965" />
      </g>
      <path
         id="path1159"
         style="font-style:normal;font-variant:normal;font-weight:800;font-stretch:normal;font-size:189.586px;line-height:1.05;font-family:'JetBrains Mono';-inkscape-font-specification:'JetBrains Mono Ultra-Bold';letter-spacing:9.47932px;display:inline;fill:#92278f;fill-opacity:1;stroke-width:1.5051"
         d="m 62.004021,108.92368 c -3.9334,0 -7.044,1.3243 -9.3317,3.9734 -1.6036,1.8286 -2.6427,4.1328 -3.1223,6.9081 -4.0053,-4.596 -5.7301,-9.0754 -11.340599,-9.0754 0,0 -4.441301,0.2878 -4.441301,3.5761 v 10.9687 c 0,5.8545 7.525601,5.9048 7.525601,0 v -5.3335 l 5.848999,6.6141 c 3.0091,3.6722 9.7438,4.7341 9.7438,-0.3751 v -2.5669 c 0,-1.8062 0.4613,-3.1904 1.3845,-4.1537 0.883001,-1.0034 2.1474,-1.5054 3.793,-1.5054 h 3.6122 c 1.6457,0 2.910001,0.4816 3.793,1.4449 0.729099,0.7953 1.156999,1.8915 1.2842,3.2887 0.02601,0.2951 0.04,3.4602 0.04,3.7822 0,1.8061 -0.4415,3.2112 -1.324499,4.2147 -0.9232,0.9633 -2.187001,1.4444 -3.7925,1.4444 -7.271001,0 -6.637502,9.031 0,9.031 2.5688,0 4.8162,-0.602 6.7427,-1.8061 1.886299,-1.2041 3.351199,-2.8897 4.394599,-5.0571 1.003401,-2.2074 1.4981,-4.8164 1.4981,-6.4673 0,-1.6507 0.01101,-4.7953 0,-5.0793 -0.088,-2.6485 -0.591799,-4.9697 -1.4981,-6.9634 -1.043501,-2.2076 -2.5088,-3.8931 -4.395099,-5.057 -1.9265,-1.2041 -4.1739,-1.8061 -6.7427,-1.8061 z" />
    </g>
  </g>
</svg>
